HIERARCHY
ROOT Hips
{
	OFFSET 0.000000 0.000000 0.000000
	CHANNELS 6 Xposition Yposition Zposition Zrotation Yrotation Xrotation 
	JOINT LeftUpLeg_virtual
	{
		OFFSET 0.000000 0.000000 0.000000
		CHANNELS 3 Zrotation Yrotation Xrotation
		JOINT LeftUpLeg
		{
			OFFSET 10.205400 -3.823500 0.155100
			CHANNELS 3 Zrotation Yrotation Xrotation
			JOINT LeftLeg
			{
				OFFSET 0.708757 -12.982077 0.567790
				CHANNELS 3 Zrotation Yrotation Xrotation
				JOINT LeftFoot
				{
					OFFSET -0.708756 -10.717838 -2.184338
					CHANNELS 3 Zrotation Yrotation Xrotation
					JOINT LeftToeBase
					{
						OFFSET 0.108149 -7.191104 7.560241
						CHANNELS 3 Zrotation Yrotation Xrotation
						End Site
						{
							OFFSET 0.000000 0.000000 0.000000
						}
					}
				}
			}
		}
	}
	JOINT RightUpLeg_virtual
	{
		OFFSET 0.000000 0.000000 0.000000
		CHANNELS 3 Zrotation Yrotation Xrotation
		JOINT RightUpLeg
		{
			OFFSET -10.205400 -3.823500 0.005500
			CHANNELS 3 Zrotation Yrotation Xrotation
			JOINT RightLeg
			{
				OFFSET -0.708756 -12.982134 0.610632
				CHANNELS 3 Zrotation Yrotation Xrotation
				JOINT RightFoot
				{
					OFFSET 0.708754 -10.717769 -1.945823
					CHANNELS 3 Zrotation Yrotation Xrotation
					JOINT RightToeBase
					{
						OFFSET -0.108140 -7.191069 7.372968
						CHANNELS 3 Zrotation Yrotation Xrotation
						End Site
						{
							OFFSET 0.000000 0.000000 0.000000
						}
					}
				}
			}
		}
	}
	JOINT Spine_virtual
	{
		OFFSET 0.000000 0.000000 0.000000
		CHANNELS 3 Zrotation Yrotation Xrotation
		JOINT Spine
		{
			OFFSET 0.000000 6.876099 0.125700
			CHANNELS 3 Zrotation Yrotation Xrotation
			JOINT Spine1
			{
				OFFSET 0.000000 8.022060 0.146608
				CHANNELS 3 Zrotation Yrotation Xrotation
				JOINT Spine2
				{
					OFFSET 0.000000 9.168068 0.167552
					CHANNELS 3 Zrotation Yrotation Xrotation
					JOINT Neck_virtual
					{
						OFFSET 0.000000 0.000000 0.000000
						CHANNELS 3 Zrotation Yrotation Xrotation
						JOINT Neck
						{
							OFFSET 0.000000 10.314075 0.188496
							CHANNELS 3 Zrotation Yrotation Xrotation
							JOINT Head
							{
								OFFSET 0.000000 7.643700 -2.377400
								CHANNELS 3 Zrotation Yrotation Xrotation
								End Site
								{
									OFFSET 0.000000 0.000000 0.000000
								}
							}
						}
					}
					JOINT LeftShoulder_virtual
					{
						OFFSET 0.000000 0.000000 0.000000
						CHANNELS 3 Zrotation Yrotation Xrotation
						JOINT LeftShoulder
						{
							OFFSET 4.392200 8.824978 0.174984
							CHANNELS 3 Zrotation Yrotation Xrotation
							JOINT LeftArm
							{
								OFFSET 8.771219 -2.981674 -0.026999
								CHANNELS 3 Zrotation Yrotation Xrotation
								JOINT LeftForeArm
								{
									OFFSET 8.512804 0.000000 -0.000000
									CHANNELS 3 Zrotation Yrotation Xrotation
									JOINT LeftHand
									{
										OFFSET 18.484802 0.000000 -0.000000
										CHANNELS 3 Zrotation Yrotation Xrotation
										End Site
										{
											OFFSET 0.000000 0.000000 0.000000
										}
									}
								}
							}
						}
					}
					JOINT RightShoulder_virtual
					{
						OFFSET 0.000000 0.000000 0.000000
						CHANNELS 3 Zrotation Yrotation Xrotation
						JOINT RightShoulder
						{
							OFFSET -4.392200 8.824993 0.141379
							CHANNELS 3 Zrotation Yrotation Xrotation
							JOINT RightArm
							{
								OFFSET -8.771282 -2.981682 -0.094208
								CHANNELS 3 Zrotation Yrotation Xrotation
								JOINT RightForeArm
								{
									OFFSET -8.494598 0.000000 0.000000
									CHANNELS 3 Zrotation Yrotation Xrotation
									JOINT RightHand
									{
										OFFSET -18.483803 0.000000 0.000001
										CHANNELS 3 Zrotation Yrotation Xrotation
										End Site
										{
											OFFSET 0.000000 0.000000 0.000000
										}
									}
								}
							}
						}
					}
				}
			}
		}
	}
}
MOTION
Frames: 11
Frame Time: 0.033333
1.286741 36.018631 11.509750 -179.968012 2.696087 -179.819019 -3.187457 -3.487170 10.276029 -11.600878 1.761302 -15.799003 14.509636 6.015319 21.231524 -0.491820 -2.882767 1.629350 0.000000 0.000000 0.000000 0.946420 -1.343653 8.193666 -0.497956 -2.701514 -9.844466 -9.120824 -1.757933 15.491509 5.177072 1.006243 5.449070 0.000000 0.000000 0.000000 0.727736 0.605177 -1.278206 -4.257885 1.562699 -6.735939 -0.035728 -3.350711 2.906254 -0.028532 -0.101851 0.018499 -0.272663 -1.565466 5.434306 -7.539495 7.203942 5.811126 0.000000 0.000000 0.000000 1.308187 -0.856660 2.816764 -5.379466 1.999000 -6.702764 -2.792271 7.935956 -40.863574 1.413030 -44.796895 -3.269358 0.000000 0.000000 0.000000 -2.257427 -0.129426 2.372237 20.367641 -4.398005 -13.072804 9.417951 -11.213998 -52.407352 -0.790601 30.155671 3.182902 0.000000 0.000000 0.000000 
1.285930 35.998768 11.571292 -179.959966 2.934037 -179.807107 -3.078437 -3.390056 10.371149 -11.661173 1.296774 -15.618206 14.619263 5.754232 21.201681 -0.724648 -3.047354 1.312585 0.000000 0.000000 0.000000 0.936336 -1.494105 7.858790 -0.542057 -3.400683 -9.923595 -9.574888 -2.501953 15.556896 4.681721 0.524971 6.225789 0.000000 0.000000 0.000000 0.750790 0.533107 -1.284463 -4.258601 1.662770 -6.765527 -0.015366 -3.268932 2.912519 -0.014208 0.018040 0.034560 -0.472234 -1.680401 5.455219 -7.694078 6.941080 5.934563 0.000000 0.000000 0.000000 1.272669 -0.877184 2.855679 -5.337511 1.914919 -6.878023 -2.766242 7.819500 -40.762569 1.325932 -44.677326 -3.154849 0.000000 0.000000 0.000000 -2.320332 -0.107523 2.221742 20.566724 -4.428558 -12.908417 9.460970 -11.363705 -52.366196 -0.783023 30.118067 3.234014 0.000000 0.000000 0.000000 
1.284544 35.996048 11.649561 -179.992478 3.169320 -179.842132 -3.105286 -3.347792 10.280563 -11.660742 1.359982 -15.556336 14.575009 5.832208 21.154921 -0.763289 -3.103250 1.256001 0.000000 0.000000 0.000000 0.875384 -1.483416 7.793839 -0.520503 -3.386888 -9.962159 -9.579420 -2.518497 15.297153 4.786554 0.551009 6.414352 0.000000 0.000000 0.000000 0.728740 0.574760 -1.252293 -4.321069 1.609458 -6.790857 -0.026242 -3.239366 2.930733 -0.043624 0.027976 0.020928 -0.439600 -1.748123 5.492275 -7.587335 6.773055 5.964891 0.000000 0.000000 0.000000 1.327037 -0.889842 2.905221 -5.359906 1.802587 -6.680267 -2.684584 7.625517 -40.556547 1.465870 -44.567285 -3.294295 0.000000 0.000000 0.000000 -2.241546 -0.144253 2.334630 20.769526 -4.395619 -12.881597 9.624459 -11.643796 -52.374546 -0.694599 30.263011 3.418721 0.000000 0.000000 0.000000 
1.286383 36.002556 11.737170 -179.929832 3.628364 -179.854932 -3.061803 -3.146609 10.168684 -11.645954 1.195413 -15.487186 14.486555 5.884421 21.012505 -0.383775 -2.848247 1.356893 0.000000 0.000000 0.000000 0.878244 -1.404749 7.557428 -0.468875 -3.308207 -9.806744 -9.606904 -2.487912 14.901743 4.899629 0.559005 6.681323 0.000000 0.000000 0.000000 0.735488 0.600391 -1.255697 -4.345221 1.565643 -6.809746 0.010276 -3.175219 2.983059 -0.047656 0.039293 0.014910 -0.403244 -1.598055 5.522547 -7.343815 6.566408 6.197874 0.000000 0.000000 0.000000 1.309254 -0.851681 2.882042 -5.411612 1.716116 -6.708818 -2.710990 7.415519 -40.374126 1.454092 -44.672958 -3.218248 0.000000 0.000000 0.000000 -2.246124 -0.086810 2.398763 20.894775 -4.222776 -12.797142 9.770865 -11.983134 -52.163159 -0.774772 30.484794 3.379617 0.000000 0.000000 0.000000 
1.292688 36.016090 11.830323 -179.957644 3.857596 -179.847869 -3.155296 -3.185137 10.059664 -11.610656 1.288916 -15.430285 14.649793 5.944000 20.986444 -0.465562 -2.942436 1.302894 0.000000 0.000000 0.000000 0.814360 -1.457714 7.553785 -0.396977 -3.386323 -10.000064 -9.609269 -2.519638 14.551952 5.017336 0.588732 7.062394 0.000000 0.000000 0.000000 0.666584 0.656939 -1.254620 -4.382760 1.389454 -6.828677 0.043386 -3.169564 3.089672 -0.015563 0.055312 0.012468 -0.421827 -1.538972 5.620327 -7.145645 6.248243 6.573106 0.000000 0.000000 0.000000 1.314965 -0.787064 2.978350 -5.590193 1.683187 -6.615573 -2.840665 7.167601 -40.233639 1.392622 -44.809258 -3.056207 0.000000 0.000000 0.000000 -2.256657 -0.046759 2.497529 20.851041 -4.032409 -12.718077 10.058863 -12.271625 -52.115006 -0.782488 30.786719 3.447512 0.000000 0.000000 0.000000 
1.296461 36.024956 11.929558 179.979473 4.131844 -179.881556 -3.251505 -3.076217 9.979598 -11.566430 1.187523 -15.408562 14.642092 5.912894 20.912859 -0.389200 -2.913081 1.359404 0.000000 0.000000 0.000000 0.720071 -1.391275 7.393542 -0.348573 -3.442905 -9.977849 -9.615037 -2.533562 14.263770 5.122023 0.647486 7.356720 0.000000 0.000000 0.000000 0.595550 0.721240 -1.241159 -4.408707 1.560913 -6.865775 0.050489 -3.229384 3.178943 -0.049134 -0.061244 0.008342 -0.357456 -1.606099 5.638162 -6.801519 5.948627 7.034160 0.000000 0.000000 0.000000 1.379976 -0.725778 2.981731 -5.748843 1.648002 -6.606732 -3.155457 7.022949 -40.270140 1.349294 -45.010407 -2.928311 0.000000 0.000000 0.000000 -2.185297 -0.002142 2.521321 20.763249 -3.788506 -12.471250 10.310194 -12.568937 -52.318528 -0.787533 31.039603 3.462251 0.000000 0.000000 0.000000 
1.291856 36.025257 12.029106 179.998270 4.231102 -179.898085 -3.250548 -3.037604 9.891456 -11.575782 1.095484 -15.430815 14.738853 5.928087 20.924390 -0.326145 -2.889707 1.351983 0.000000 0.000000 0.000000 0.686664 -1.388108 7.337267 -0.257357 -3.489690 -10.095315 -9.653432 -2.550568 14.136327 5.152153 0.688259 7.551536 0.000000 0.000000 0.000000 0.593387 0.680590 -1.232948 -4.360870 1.585006 -6.904790 0.092125 -3.208637 3.260604 -0.043044 -0.059012 0.002667 -0.322009 -1.507327 5.703485 -6.421927 5.601030 7.696918 0.000000 0.000000 0.000000 1.374678 -0.692281 3.015027 -5.900244 1.597864 -6.507788 -3.641360 7.081761 -40.437455 1.274476 -45.138620 -2.718119 0.000000 0.000000 0.000000 -2.171989 0.013373 2.573729 20.608294 -3.499625 -12.227598 10.690711 -12.809702 -52.605816 -0.674169 31.247456 3.537327 0.000000 0.000000 0.000000 
1.271479 36.019550 12.118516 -179.978804 4.335631 -179.962671 -3.204561 -2.928198 9.803581 -11.641614 1.081646 -15.455022 14.797120 6.010462 20.945605 -0.397972 -2.948920 1.396716 0.000000 0.000000 0.000000 0.662241 -1.311485 7.278110 -0.213241 -3.457078 -10.146704 -9.687625 -2.579809 14.075347 5.163350 0.750895 7.667408 0.000000 0.000000 0.000000 0.604489 0.610189 -1.237696 -4.250272 1.554310 -6.898587 0.142902 -3.103141 3.310518 -0.042967 0.042276 0.009964 -0.291758 -1.386508 5.762812 -5.997245 5.269366 8.496511 0.000000 0.000000 0.000000 1.379241 -0.645768 3.085232 -5.966010 1.414175 -6.330633 -4.261282 7.377373 -40.620969 1.205228 -45.235175 -2.485985 0.000000 0.000000 0.000000 -2.169911 0.002061 2.610999 20.351858 -3.188648 -11.831661 11.258959 -12.970329 -52.907520 -0.682848 31.401156 3.386448 0.000000 0.000000 0.000000 
1.243215 36.009258 12.211012 -179.929354 4.295874 -179.981099 -3.116403 -2.928816 9.672930 -11.691399 0.996112 -15.518345 14.821724 6.203186 21.041426 -0.281950 -2.834159 1.440384 0.000000 0.000000 0.000000 0.701479 -1.321147 7.174988 -0.212654 -3.435273 -10.179365 -9.753162 -2.579142 14.079373 5.137630 0.792337 7.717306 0.000000 0.000000 0.000000 0.672448 0.511648 -1.295299 -4.100009 1.617756 -6.895347 0.202094 -3.085563 3.393025 -0.048476 0.058428 0.000717 -0.206688 -1.412238 5.820952 -5.453448 4.978520 9.382235 0.000000 0.000000 0.000000 1.369780 -0.776236 3.073546 -5.958984 1.333766 -6.045867 -5.080666 7.807573 -40.767552 1.131680 -45.316772 -2.249923 0.000000 0.000000 0.000000 -2.127448 -0.014549 2.609589 20.041986 -2.786562 -11.370448 11.940404 -13.163056 -53.404033 -0.523520 31.600027 3.341319 0.000000 0.000000 0.000000 
1.209383 36.001781 12.311680 -179.980416 4.196157 179.991659 -3.131193 -2.977268 9.564536 -11.732960 1.051405 -15.603893 14.849292 6.388451 21.115755 -0.501089 -2.933110 1.508472 0.000000 0.000000 0.000000 0.676233 -1.397233 7.102578 -0.301285 -3.399176 -10.253925 -9.772640 -2.614727 14.092907 5.166239 0.858388 7.735222 0.000000 0.000000 0.000000 0.645638 0.489634 -1.389588 -3.950644 1.605920 -6.824050 0.231294 -3.159749 3.481255 0.012727 0.041121 0.003937 -0.088510 -1.418338 5.887817 -4.796161 4.774736 10.335919 0.000000 0.000000 0.000000 1.329139 -0.705109 3.139731 -5.864142 1.117911 -6.018758 -6.276277 8.439880 -40.615320 0.897660 -45.670466 -1.834702 0.000000 0.000000 0.000000 -2.158207 -0.078811 2.634512 19.555914 -2.379498 -10.850944 13.092115 -13.297675 -53.760665 -0.552863 32.103979 3.102764 0.000000 0.000000 0.000000 
1.175548 35.995205 12.427224 -179.955418 4.076353 179.987929 -3.044173 -3.071596 9.477633 -11.794240 1.212260 -15.814733 14.817988 6.641072 21.194984 -0.736620 -3.031629 1.474857 0.000000 0.000000 0.000000 0.738842 -1.453769 7.072468 -0.388125 -3.367078 -10.401891 -9.775215 -2.694494 14.040606 5.245812 0.918527 7.718139 0.000000 0.000000 0.000000 0.709505 0.458562 -1.462117 -3.676812 1.583749 -6.691004 0.227381 -3.244407 3.617960 -0.039523 0.033328 0.003757 -0.151320 -1.540943 5.995038 -4.491214 4.423832 11.299131 0.000000 0.000000 0.000000 1.392316 -0.909647 3.186736 -5.775506 1.107010 -5.554500 -8.050829 9.476654 -40.334238 0.770887 -46.246518 -1.515600 0.000000 0.000000 0.000000 -2.095080 -0.193508 2.641557 18.997005 -2.004974 -10.242444 14.601044 -13.524277 -53.628900 -0.631096 32.916574 2.887450 0.000000 0.000000 0.000000 
